<svg xmlns="http://www.w3.org/2000/svg" version="1.1" xmlns:xlink="http://www.w3.org/1999/xlink" width="1000" height="1000"><metadata><rdf:RDF xmlns:rdf="http://www.w3.org/1999/02/22-rdf-syntax-ns#" xmlns:dc="http://purl.org/dc/elements/1.1/"><rdf:Description><dc:creator>RealFaviconGenerator</dc:creator><dc:source>https://realfavicongenerator.net</dc:source></rdf:Description></rdf:RDF></metadata><style>
    #light-icon {
      display: inline;
    }
    #dark-icon {
      display: none;
    }

    @media (prefers-color-scheme: dark) {
      #light-icon {
        display: none;
      }
      #dark-icon {
        display: inline;
      }
    }
  </style><g id="light-icon"><svg xmlns="http://www.w3.org/2000/svg" version="1.1" xmlns:xlink="http://www.w3.org/1999/xlink" width="1000" height="1000"><g><g transform="matrix(5.9523809523809526,0,0,5.9523809523809526,0,44.64285714285711)"><svg xmlns="http://www.w3.org/2000/svg" width="168" height="153" viewBox="0 0 168 153" fill="none"><path d="M77.0916 0C89.3176 4.3466 105.007 11.2513 117.288 16.2728C121.143 17.5928 125.021 19.1268 128.803 20.6548C140.263 25.2868 151.914 29.5198 163.273 34.3808C164.095 34.7328 165.701 35.5868 165.973 36.4298C166.451 37.7238 166.877 39.7698 166.904 41.1488C167.087 50.8268 167.013 60.7008 167.02 70.3758L167.011 128.461C167.005 132.306 166.706 142.602 167.067 146.03C167.103 146.495 167.125 146.96 167.132 147.426C167.206 150.343 166.714 152.176 163.244 152.108C153.131 151.911 143.011 152.001 132.896 152.027L63.2926 152.285L23.0656 152.45C16.2276 152.481 9.09584 152.608 2.25434 152.387C1.21174 152.353 0.938136 151.925 0.357836 151.239C-0.197764 147.033 0.0592383 139.873 0.0600383 135.352L0.0636394 107.174L0.0845363 71.8268C0.0913363 68.1858 -0.152763 54.6718 0.815837 50.4768C1.10504 49.2238 4.50164 47.1458 5.76884 46.3558C29.6066 31.4978 52.9676 14.2577 77.0916 0Z" fill="#13171B"></path><path d="M117.288 16.2728C121.143 17.5928 125.021 19.1268 128.803 20.6548C140.263 25.2868 151.914 29.5198 163.273 34.3808C164.095 34.7328 165.701 35.5868 165.973 36.4298C166.451 37.7238 166.877 39.7698 166.904 41.1488C167.087 50.8268 167.013 60.7008 167.02 70.3758L167.011 128.461C167.005 132.306 166.706 142.602 167.067 146.03C165.316 145.722 161.427 145.79 159.471 145.783C159.461 142.004 159.353 136.269 159.745 132.667C159.617 130.266 159.641 130.527 157.497 130.09L158.804 129.953C160.174 128.409 159.556 123.509 159.446 121.246C159.015 118.321 159.236 110.383 159.265 107.019C149.997 108.293 141.423 109.869 132.22 111.639L132.102 114.997C125.071 115.045 117.285 115.287 110.316 115.023C109.113 117.561 109.579 125.884 109.635 128.977C105.83 128.939 101.585 128.994 97.8197 128.85C97.4167 108.016 98.4867 84.6818 97.5987 64.1728C93.4807 64.2838 67.6447 66.2808 65.7857 67.6708C60.7117 65.3018 51.1397 63.0028 45.5887 61.2088C42.7627 60.2958 40.1387 59.9638 37.1757 58.6868L37.2697 58.1208L39.9187 56.7088L39.8847 56.0338C41.0327 55.0298 56.1857 48.9838 58.4477 48.0358L116.999 23.5908C118.356 21.0718 118.149 18.9108 117.288 16.2728Z" fill="url(#paint0_linear_48_269)"></path><path d="M117.288 16.2728C121.143 17.5928 125.021 19.1268 128.803 20.6548C140.263 25.2868 151.914 29.5198 163.273 34.3808C164.095 34.7328 165.701 35.5868 165.973 36.4298C166.451 37.7238 166.877 39.7698 166.904 41.1488C167.087 50.8268 167.013 60.7008 167.021 70.3758L167.011 128.461C167.005 132.306 166.706 142.602 167.067 146.03C165.316 145.722 161.427 145.79 159.471 145.783C159.461 142.004 159.353 136.269 159.745 132.667C159.617 130.266 159.642 130.527 157.497 130.09L158.804 129.953C160.174 128.409 159.556 123.509 159.446 121.246C159.015 118.321 159.237 110.383 159.265 107.019C149.997 108.293 141.423 109.869 132.22 111.639L132.102 114.997C125.071 115.045 117.285 115.287 110.316 115.023C114.295 114.613 121.41 114.806 125.627 114.811C125.363 99.4038 125.839 83.3798 125.809 67.8638C125.515 65.1468 125.504 55.7198 124.588 53.5538C123.313 53.0248 119.04 54.0128 117.412 54.2148C114.325 54.5968 111.869 54.5768 108.775 54.3938C111.878 54.4128 112.955 53.2528 115.354 52.8768C117.686 52.5118 120.969 52.8978 123.583 52.1108C125.568 51.5138 125.601 50.6998 127.439 49.9958C128.783 49.4808 133.29 48.5388 134.173 47.8508C139.152 43.9678 141.827 37.9608 148.918 36.8058C146.691 35.9898 144.848 35.0898 143.064 33.5298C137.854 30.9868 123.062 25.8688 116.999 23.5908C118.356 21.0718 118.149 18.9108 117.288 16.2728Z" fill="url(#paint1_linear_48_269)"></path><path d="M117.288 16.2728C121.143 17.5928 125.021 19.1268 128.803 20.6548C140.263 25.2868 151.914 29.5198 163.273 34.3808C164.095 34.7328 165.701 35.5868 165.973 36.4298C166.451 37.7238 166.877 39.7698 166.904 41.1488C167.087 50.8268 167.013 60.7008 167.02 70.3758L167.011 128.461C167.005 132.306 166.706 142.602 167.067 146.03C165.316 145.722 161.427 145.79 159.471 145.783C159.461 142.004 159.353 136.269 159.745 132.667C159.617 130.266 159.641 130.527 157.497 130.09L158.804 129.953C160.174 128.409 159.556 123.509 159.446 121.246C159.015 118.321 159.236 110.383 159.265 107.019C158.318 106.263 157.871 106.369 156.673 106.314C156.765 104.573 157.109 103.887 157.689 102.265L158.012 102.847C158.987 100.908 158.14 87.4138 158.667 84.4378C159.284 80.9558 157.768 73.0958 159.818 70.2378C159.969 67.1058 159.878 63.9148 159.834 60.7758C160.398 56.8368 160.162 44.5908 160.174 40.1528C154.421 38.0408 148.924 35.4478 143.064 33.5298C137.854 30.9868 123.062 25.8688 116.999 23.5908C118.356 21.0718 118.149 18.9108 117.288 16.2728Z" fill="#D38E36"></path><path d="M159.265 107.019C158.318 106.263 157.871 106.369 156.673 106.314C156.765 104.573 157.109 103.886 157.689 102.265L158.012 102.847C158.987 100.908 158.14 87.4139 158.667 84.4369C159.284 80.9559 157.768 73.0959 159.818 70.2379C159.863 81.1379 159.833 92.0389 159.729 102.939C159.722 107.224 159.992 117.553 159.446 121.245C159.015 118.321 159.236 110.383 159.265 107.019Z" fill="#EECCA8"></path><path d="M131.538 50.1488L132.419 51.6768C132.79 63.5398 132.546 76.1888 132.509 88.1088C132.924 93.3448 132.617 98.6808 132.806 103.934C132.875 105.846 134.151 108.05 133.902 109.834L132.22 111.639L132.102 114.997C125.071 115.045 117.285 115.287 110.316 115.023C114.295 114.613 121.41 114.806 125.627 114.811C125.363 99.4038 125.839 83.3798 125.809 67.8638L126.159 67.7588C125.899 63.0068 126.124 56.6588 126.21 51.8038C128.009 51.3168 129.766 50.7258 131.538 50.1488Z" fill="#D38E36"></path><path d="M125.809 67.8629L126.159 67.7589C126.601 82.3119 125.2 96.3019 127.086 110.714C129.181 109.478 130.502 111.33 131.964 110.442C132.959 105.302 131.533 93.9859 132.509 88.1089C132.924 93.3449 132.617 98.6799 132.806 103.934C132.875 105.846 134.151 108.049 133.902 109.834L132.22 111.639L132.102 114.997C125.071 115.045 117.285 115.287 110.316 115.023C114.295 114.613 121.41 114.806 125.627 114.811C125.363 99.4039 125.839 83.3799 125.809 67.8629Z" fill="#E6AA59"></path><path d="M143.064 33.5298C148.924 35.4478 154.421 38.0408 160.174 40.1528C160.162 44.5908 160.398 56.8368 159.834 60.7758C159.341 55.6548 159.63 46.9428 159.649 41.5588C155.031 43.6248 135.454 50.2448 133.857 54.7198L134.207 55.0599C136.322 54.0859 142.635 51.2299 144.572 50.7819L144.801 51.1358C143.587 51.9428 134.065 56.1138 133.077 55.8628C132.923 54.3978 132.861 54.0668 133.15 52.6358C134.356 51.2088 136.722 50.5018 138.589 49.3728L138.883 49.1918C136.487 49.9638 134.67 50.4848 132.419 51.6768L131.538 50.1488C129.766 50.7258 128.009 51.3168 126.21 51.8038C126.124 56.6588 125.899 63.0068 126.159 67.7588L125.809 67.8628C125.515 65.1468 125.504 55.7198 124.588 53.5538C123.313 53.0248 119.04 54.0129 117.412 54.2149C114.325 54.5969 111.869 54.5769 108.775 54.3939C111.878 54.4129 112.955 53.2529 115.354 52.8769C117.686 52.5119 120.969 52.8978 123.583 52.1108C125.568 51.5138 125.601 50.6998 127.439 49.9958C128.783 49.4808 133.29 48.5389 134.173 47.8509C139.152 43.9679 141.827 37.9608 148.918 36.8048C146.691 35.9898 144.848 35.0898 143.064 33.5298Z" fill="#EECCA8"></path><path d="M131.537 50.1488C133.939 49.3438 142.581 46.2818 144.383 46.8658L144.389 46.8948L143.727 46.9598C143.372 47.6148 139.872 48.8018 138.883 49.1918C136.487 49.9638 134.67 50.4848 132.419 51.6768L131.537 50.1488Z" fill="#E6AA59"></path><path d="M34.8656 58.2778C36.7446 57.1838 37.8576 56.7958 39.8846 56.0338L39.9186 56.7088L37.2696 58.1208L37.1756 58.6868C40.1386 59.9638 42.7626 60.2958 45.5886 61.2088C51.1396 63.0028 60.7116 65.3018 65.7856 67.6708C67.6446 66.2808 93.4806 64.2838 97.5986 64.1728C98.4866 84.6818 97.4166 108.016 97.8196 128.85C96.7886 128.961 96.2286 129.132 95.2906 128.697C94.5976 126.463 94.8976 117.611 94.9206 114.619L95.0016 86.5558C94.9986 81.9378 95.2116 74.8378 94.6436 70.4748C94.7316 73.0938 95.0026 77.8398 94.2636 80.2318C94.0266 84.9538 94.2296 91.6818 94.2316 96.5368L94.2486 128.885C76.0986 128.976 52.7836 130.915 34.4756 133.312L34.8656 58.2778Z" fill="#FFFFFE"></path><path d="M65.7856 67.6708C67.6446 66.2808 93.4806 64.2838 97.5986 64.1728C98.4866 84.6818 97.4166 108.016 97.8206 128.85C96.7886 128.961 96.2286 129.132 95.2906 128.697C94.5976 126.463 94.8976 117.611 94.9206 114.619L95.0026 86.5558C94.9986 81.9378 95.2116 74.8378 94.6436 70.4748C94.7316 73.0938 95.0026 77.8388 94.2636 80.2318C94.1496 76.8938 94.1066 70.6128 94.4186 67.4498C86.0336 68.2408 77.6416 68.9598 69.2446 69.6078L69.1956 124.241C72.3626 124.142 88.3116 123.226 89.8016 124.106C89.8826 125.393 90.0626 125.122 89.4946 126.014C84.6276 126.719 71.3906 126.588 65.8776 126.653C65.7366 106.992 65.7056 87.3308 65.7856 67.6708Z" fill="#101417"></path><path d="M34.4307 135.561C47.5997 134.586 60.9917 132.606 74.2337 131.796C85.2747 131.119 95.9717 131.223 107.01 131.269C112.107 131.291 117.561 130.729 122.787 130.699C135.133 130.666 147.472 131.322 159.745 132.667C159.353 136.269 159.461 142.004 159.471 145.783C146.808 145.278 130.382 145.779 117.486 145.789L34.4377 145.776L34.4307 135.561Z" fill="#FFFFFE"></path><path d="M132.22 111.639C141.423 109.869 149.997 108.293 159.265 107.019C159.237 110.383 159.015 118.321 159.446 121.246C159.556 123.509 160.174 128.409 158.804 129.953L157.497 130.09C149.394 129.271 140.149 128.48 132.024 128.311C132.007 123.873 132.033 119.435 132.102 114.997L132.22 111.639Z" fill="url(#paint2_linear_48_269)"></path><path d="M6.36218 145.936C6.58798 135.382 5.97618 54.5109 7.21608 52.9669C8.81828 53.5339 25.4967 55.9699 28.5397 56.4779C29.0347 65.5419 28.7257 77.8339 28.7507 87.1149L28.8417 145.957C21.3487 145.896 13.8555 145.889 6.36218 145.936Z" fill="url(#paint3_linear_48_269)"></path><path d="M77.3107 7.02704L82.9767 9.42014L110.199 20.2848C103.868 22.4158 95.5187 26.2748 89.2197 28.9828C77.1977 34.1278 65.2087 39.3468 53.2507 44.6398C50.8967 45.6818 37.3337 51.9778 35.7127 52.1508C33.3567 53.3168 30.1417 54.5408 28.5397 56.4778C25.4967 55.9698 8.81826 53.5338 7.21606 52.9668C26.0577 41.0948 44.4397 28.2238 63.2737 16.3108C67.8807 13.3971 72.9187 10.2197 77.3107 7.02704Z" fill="url(#paint4_linear_48_269)"></path><path d="M77.3107 7.02704L82.9767 9.42014C80.4577 10.4101 76.3487 16.6278 74.7057 17.3318C64.4377 21.7358 55.8117 26.9038 47.5037 34.5358C44.5227 37.2428 39.3587 39.5328 36.7277 42.7478C35.5997 44.1258 29.8917 50.5858 30.0927 51.7868C31.9437 51.9388 33.8617 52.1408 35.7127 52.1508C33.3567 53.3168 30.1417 54.5408 28.5397 56.4778C25.4967 55.9698 8.81826 53.5338 7.21606 52.9668C26.0577 41.0948 44.4397 28.2238 63.2737 16.3108C67.8807 13.3971 72.9187 10.2197 77.3107 7.02704Z" fill="#FFFFFE"></path><defs>
<linearGradient id="paint0_linear_48_269" x1="109.806" y1="19.4778" x2="68.1087" y2="114.332" gradientUnits="userSpaceOnUse">
<stop stop-color="#ECD6C4"></stop>
<stop offset="1" stop-color="#F6F8F7"></stop>
</linearGradient>
<linearGradient id="paint1_linear_48_269" x1="132.408" y1="75.1178" x2="159.551" y2="76.4738" gradientUnits="userSpaceOnUse">
<stop stop-color="#EDB779"></stop>
<stop offset="1" stop-color="#F9E5CD"></stop>
</linearGradient>
<linearGradient id="paint2_linear_48_269" x1="135.027" y1="129.624" x2="159.129" y2="109.648" gradientUnits="userSpaceOnUse">
<stop stop-color="#F5E0CC"></stop>
<stop offset="1" stop-color="white"></stop>
</linearGradient>
<linearGradient id="paint3_linear_48_269" x1="33.5007" y1="142.648" x2="0.266585" y2="56.5299" gradientUnits="userSpaceOnUse">
<stop stop-color="#656462"></stop>
<stop offset="1" stop-color="#9A9895"></stop>
</linearGradient>
<linearGradient id="paint4_linear_48_269" x1="74.7247" y1="43.5908" x2="60.9777" y2="23.7678" gradientUnits="userSpaceOnUse">
<stop stop-color="#9B9693"></stop>
<stop offset="1" stop-color="#DDDDD9"></stop>
</linearGradient>
</defs></svg></g></g></svg></g><g id="dark-icon"><svg xmlns="http://www.w3.org/2000/svg" version="1.1" xmlns:xlink="http://www.w3.org/1999/xlink" width="1000" height="1000"><g clip-path="url(#SvgjsClipPath1478)"><rect width="1000" height="1000" fill="#ffffff"></rect><g transform="matrix(4.166666666666667,0,0,4.166666666666667,150,181.25)"><svg xmlns="http://www.w3.org/2000/svg" width="168" height="153" viewBox="0 0 168 153" fill="none"><path d="M77.0916 0C89.3176 4.3466 105.007 11.2513 117.288 16.2728C121.143 17.5928 125.021 19.1268 128.803 20.6548C140.263 25.2868 151.914 29.5198 163.273 34.3808C164.095 34.7328 165.701 35.5868 165.973 36.4298C166.451 37.7238 166.877 39.7698 166.904 41.1488C167.087 50.8268 167.013 60.7008 167.02 70.3758L167.011 128.461C167.005 132.306 166.706 142.602 167.067 146.03C167.103 146.495 167.125 146.96 167.132 147.426C167.206 150.343 166.714 152.176 163.244 152.108C153.131 151.911 143.011 152.001 132.896 152.027L63.2926 152.285L23.0656 152.45C16.2276 152.481 9.09584 152.608 2.25434 152.387C1.21174 152.353 0.938136 151.925 0.357836 151.239C-0.197764 147.033 0.0592383 139.873 0.0600383 135.352L0.0636394 107.174L0.0845363 71.8268C0.0913363 68.1858 -0.152763 54.6718 0.815837 50.4768C1.10504 49.2238 4.50164 47.1458 5.76884 46.3558C29.6066 31.4978 52.9676 14.2577 77.0916 0Z" fill="#13171B"></path><path d="M117.288 16.2728C121.143 17.5928 125.021 19.1268 128.803 20.6548C140.263 25.2868 151.914 29.5198 163.273 34.3808C164.095 34.7328 165.701 35.5868 165.973 36.4298C166.451 37.7238 166.877 39.7698 166.904 41.1488C167.087 50.8268 167.013 60.7008 167.02 70.3758L167.011 128.461C167.005 132.306 166.706 142.602 167.067 146.03C165.316 145.722 161.427 145.79 159.471 145.783C159.461 142.004 159.353 136.269 159.745 132.667C159.617 130.266 159.641 130.527 157.497 130.09L158.804 129.953C160.174 128.409 159.556 123.509 159.446 121.246C159.015 118.321 159.236 110.383 159.265 107.019C149.997 108.293 141.423 109.869 132.22 111.639L132.102 114.997C125.071 115.045 117.285 115.287 110.316 115.023C109.113 117.561 109.579 125.884 109.635 128.977C105.83 128.939 101.585 128.994 97.8197 128.85C97.4167 108.016 98.4867 84.6818 97.5987 64.1728C93.4807 64.2838 67.6447 66.2808 65.7857 67.6708C60.7117 65.3018 51.1397 63.0028 45.5887 61.2088C42.7627 60.2958 40.1387 59.9638 37.1757 58.6868L37.2697 58.1208L39.9187 56.7088L39.8847 56.0338C41.0327 55.0298 56.1857 48.9838 58.4477 48.0358L116.999 23.5908C118.356 21.0718 118.149 18.9108 117.288 16.2728Z" fill="url(#paint0_linear_48_269)"></path><path d="M117.288 16.2728C121.143 17.5928 125.021 19.1268 128.803 20.6548C140.263 25.2868 151.914 29.5198 163.273 34.3808C164.095 34.7328 165.701 35.5868 165.973 36.4298C166.451 37.7238 166.877 39.7698 166.904 41.1488C167.087 50.8268 167.013 60.7008 167.021 70.3758L167.011 128.461C167.005 132.306 166.706 142.602 167.067 146.03C165.316 145.722 161.427 145.79 159.471 145.783C159.461 142.004 159.353 136.269 159.745 132.667C159.617 130.266 159.642 130.527 157.497 130.09L158.804 129.953C160.174 128.409 159.556 123.509 159.446 121.246C159.015 118.321 159.237 110.383 159.265 107.019C149.997 108.293 141.423 109.869 132.22 111.639L132.102 114.997C125.071 115.045 117.285 115.287 110.316 115.023C114.295 114.613 121.41 114.806 125.627 114.811C125.363 99.4038 125.839 83.3798 125.809 67.8638C125.515 65.1468 125.504 55.7198 124.588 53.5538C123.313 53.0248 119.04 54.0128 117.412 54.2148C114.325 54.5968 111.869 54.5768 108.775 54.3938C111.878 54.4128 112.955 53.2528 115.354 52.8768C117.686 52.5118 120.969 52.8978 123.583 52.1108C125.568 51.5138 125.601 50.6998 127.439 49.9958C128.783 49.4808 133.29 48.5388 134.173 47.8508C139.152 43.9678 141.827 37.9608 148.918 36.8058C146.691 35.9898 144.848 35.0898 143.064 33.5298C137.854 30.9868 123.062 25.8688 116.999 23.5908C118.356 21.0718 118.149 18.9108 117.288 16.2728Z" fill="url(#paint1_linear_48_269)"></path><path d="M117.288 16.2728C121.143 17.5928 125.021 19.1268 128.803 20.6548C140.263 25.2868 151.914 29.5198 163.273 34.3808C164.095 34.7328 165.701 35.5868 165.973 36.4298C166.451 37.7238 166.877 39.7698 166.904 41.1488C167.087 50.8268 167.013 60.7008 167.02 70.3758L167.011 128.461C167.005 132.306 166.706 142.602 167.067 146.03C165.316 145.722 161.427 145.79 159.471 145.783C159.461 142.004 159.353 136.269 159.745 132.667C159.617 130.266 159.641 130.527 157.497 130.09L158.804 129.953C160.174 128.409 159.556 123.509 159.446 121.246C159.015 118.321 159.236 110.383 159.265 107.019C158.318 106.263 157.871 106.369 156.673 106.314C156.765 104.573 157.109 103.887 157.689 102.265L158.012 102.847C158.987 100.908 158.14 87.4138 158.667 84.4378C159.284 80.9558 157.768 73.0958 159.818 70.2378C159.969 67.1058 159.878 63.9148 159.834 60.7758C160.398 56.8368 160.162 44.5908 160.174 40.1528C154.421 38.0408 148.924 35.4478 143.064 33.5298C137.854 30.9868 123.062 25.8688 116.999 23.5908C118.356 21.0718 118.149 18.9108 117.288 16.2728Z" fill="#D38E36"></path><path d="M159.265 107.019C158.318 106.263 157.871 106.369 156.673 106.314C156.765 104.573 157.109 103.886 157.689 102.265L158.012 102.847C158.987 100.908 158.14 87.4139 158.667 84.4369C159.284 80.9559 157.768 73.0959 159.818 70.2379C159.863 81.1379 159.833 92.0389 159.729 102.939C159.722 107.224 159.992 117.553 159.446 121.245C159.015 118.321 159.236 110.383 159.265 107.019Z" fill="#EECCA8"></path><path d="M131.538 50.1488L132.419 51.6768C132.79 63.5398 132.546 76.1888 132.509 88.1088C132.924 93.3448 132.617 98.6808 132.806 103.934C132.875 105.846 134.151 108.05 133.902 109.834L132.22 111.639L132.102 114.997C125.071 115.045 117.285 115.287 110.316 115.023C114.295 114.613 121.41 114.806 125.627 114.811C125.363 99.4038 125.839 83.3798 125.809 67.8638L126.159 67.7588C125.899 63.0068 126.124 56.6588 126.21 51.8038C128.009 51.3168 129.766 50.7258 131.538 50.1488Z" fill="#D38E36"></path><path d="M125.809 67.8629L126.159 67.7589C126.601 82.3119 125.2 96.3019 127.086 110.714C129.181 109.478 130.502 111.33 131.964 110.442C132.959 105.302 131.533 93.9859 132.509 88.1089C132.924 93.3449 132.617 98.6799 132.806 103.934C132.875 105.846 134.151 108.049 133.902 109.834L132.22 111.639L132.102 114.997C125.071 115.045 117.285 115.287 110.316 115.023C114.295 114.613 121.41 114.806 125.627 114.811C125.363 99.4039 125.839 83.3799 125.809 67.8629Z" fill="#E6AA59"></path><path d="M143.064 33.5298C148.924 35.4478 154.421 38.0408 160.174 40.1528C160.162 44.5908 160.398 56.8368 159.834 60.7758C159.341 55.6548 159.63 46.9428 159.649 41.5588C155.031 43.6248 135.454 50.2448 133.857 54.7198L134.207 55.0599C136.322 54.0859 142.635 51.2299 144.572 50.7819L144.801 51.1358C143.587 51.9428 134.065 56.1138 133.077 55.8628C132.923 54.3978 132.861 54.0668 133.15 52.6358C134.356 51.2088 136.722 50.5018 138.589 49.3728L138.883 49.1918C136.487 49.9638 134.67 50.4848 132.419 51.6768L131.538 50.1488C129.766 50.7258 128.009 51.3168 126.21 51.8038C126.124 56.6588 125.899 63.0068 126.159 67.7588L125.809 67.8628C125.515 65.1468 125.504 55.7198 124.588 53.5538C123.313 53.0248 119.04 54.0129 117.412 54.2149C114.325 54.5969 111.869 54.5769 108.775 54.3939C111.878 54.4129 112.955 53.2529 115.354 52.8769C117.686 52.5119 120.969 52.8978 123.583 52.1108C125.568 51.5138 125.601 50.6998 127.439 49.9958C128.783 49.4808 133.29 48.5389 134.173 47.8509C139.152 43.9679 141.827 37.9608 148.918 36.8048C146.691 35.9898 144.848 35.0898 143.064 33.5298Z" fill="#EECCA8"></path><path d="M131.537 50.1488C133.939 49.3438 142.581 46.2818 144.383 46.8658L144.389 46.8948L143.727 46.9598C143.372 47.6148 139.872 48.8018 138.883 49.1918C136.487 49.9638 134.67 50.4848 132.419 51.6768L131.537 50.1488Z" fill="#E6AA59"></path><path d="M34.8656 58.2778C36.7446 57.1838 37.8576 56.7958 39.8846 56.0338L39.9186 56.7088L37.2696 58.1208L37.1756 58.6868C40.1386 59.9638 42.7626 60.2958 45.5886 61.2088C51.1396 63.0028 60.7116 65.3018 65.7856 67.6708C67.6446 66.2808 93.4806 64.2838 97.5986 64.1728C98.4866 84.6818 97.4166 108.016 97.8196 128.85C96.7886 128.961 96.2286 129.132 95.2906 128.697C94.5976 126.463 94.8976 117.611 94.9206 114.619L95.0016 86.5558C94.9986 81.9378 95.2116 74.8378 94.6436 70.4748C94.7316 73.0938 95.0026 77.8398 94.2636 80.2318C94.0266 84.9538 94.2296 91.6818 94.2316 96.5368L94.2486 128.885C76.0986 128.976 52.7836 130.915 34.4756 133.312L34.8656 58.2778Z" fill="#FFFFFE"></path><path d="M65.7856 67.6708C67.6446 66.2808 93.4806 64.2838 97.5986 64.1728C98.4866 84.6818 97.4166 108.016 97.8206 128.85C96.7886 128.961 96.2286 129.132 95.2906 128.697C94.5976 126.463 94.8976 117.611 94.9206 114.619L95.0026 86.5558C94.9986 81.9378 95.2116 74.8378 94.6436 70.4748C94.7316 73.0938 95.0026 77.8388 94.2636 80.2318C94.1496 76.8938 94.1066 70.6128 94.4186 67.4498C86.0336 68.2408 77.6416 68.9598 69.2446 69.6078L69.1956 124.241C72.3626 124.142 88.3116 123.226 89.8016 124.106C89.8826 125.393 90.0626 125.122 89.4946 126.014C84.6276 126.719 71.3906 126.588 65.8776 126.653C65.7366 106.992 65.7056 87.3308 65.7856 67.6708Z" fill="#101417"></path><path d="M34.4307 135.561C47.5997 134.586 60.9917 132.606 74.2337 131.796C85.2747 131.119 95.9717 131.223 107.01 131.269C112.107 131.291 117.561 130.729 122.787 130.699C135.133 130.666 147.472 131.322 159.745 132.667C159.353 136.269 159.461 142.004 159.471 145.783C146.808 145.278 130.382 145.779 117.486 145.789L34.4377 145.776L34.4307 135.561Z" fill="#FFFFFE"></path><path d="M132.22 111.639C141.423 109.869 149.997 108.293 159.265 107.019C159.237 110.383 159.015 118.321 159.446 121.246C159.556 123.509 160.174 128.409 158.804 129.953L157.497 130.09C149.394 129.271 140.149 128.48 132.024 128.311C132.007 123.873 132.033 119.435 132.102 114.997L132.22 111.639Z" fill="url(#paint2_linear_48_269)"></path><path d="M6.36218 145.936C6.58798 135.382 5.97618 54.5109 7.21608 52.9669C8.81828 53.5339 25.4967 55.9699 28.5397 56.4779C29.0347 65.5419 28.7257 77.8339 28.7507 87.1149L28.8417 145.957C21.3487 145.896 13.8555 145.889 6.36218 145.936Z" fill="url(#paint3_linear_48_269)"></path><path d="M77.3107 7.02704L82.9767 9.42014L110.199 20.2848C103.868 22.4158 95.5187 26.2748 89.2197 28.9828C77.1977 34.1278 65.2087 39.3468 53.2507 44.6398C50.8967 45.6818 37.3337 51.9778 35.7127 52.1508C33.3567 53.3168 30.1417 54.5408 28.5397 56.4778C25.4967 55.9698 8.81826 53.5338 7.21606 52.9668C26.0577 41.0948 44.4397 28.2238 63.2737 16.3108C67.8807 13.3971 72.9187 10.2197 77.3107 7.02704Z" fill="url(#paint4_linear_48_269)"></path><path d="M77.3107 7.02704L82.9767 9.42014C80.4577 10.4101 76.3487 16.6278 74.7057 17.3318C64.4377 21.7358 55.8117 26.9038 47.5037 34.5358C44.5227 37.2428 39.3587 39.5328 36.7277 42.7478C35.5997 44.1258 29.8917 50.5858 30.0927 51.7868C31.9437 51.9388 33.8617 52.1408 35.7127 52.1508C33.3567 53.3168 30.1417 54.5408 28.5397 56.4778C25.4967 55.9698 8.81826 53.5338 7.21606 52.9668C26.0577 41.0948 44.4397 28.2238 63.2737 16.3108C67.8807 13.3971 72.9187 10.2197 77.3107 7.02704Z" fill="#FFFFFE"></path><defs>
<linearGradient id="paint0_linear_48_269" x1="109.806" y1="19.4778" x2="68.1087" y2="114.332" gradientUnits="userSpaceOnUse">
<stop stop-color="#ECD6C4"></stop>
<stop offset="1" stop-color="#F6F8F7"></stop>
</linearGradient>
<linearGradient id="paint1_linear_48_269" x1="132.408" y1="75.1178" x2="159.551" y2="76.4738" gradientUnits="userSpaceOnUse">
<stop stop-color="#EDB779"></stop>
<stop offset="1" stop-color="#F9E5CD"></stop>
</linearGradient>
<linearGradient id="paint2_linear_48_269" x1="135.027" y1="129.624" x2="159.129" y2="109.648" gradientUnits="userSpaceOnUse">
<stop stop-color="#F5E0CC"></stop>
<stop offset="1" stop-color="white"></stop>
</linearGradient>
<linearGradient id="paint3_linear_48_269" x1="33.5007" y1="142.648" x2="0.266585" y2="56.5299" gradientUnits="userSpaceOnUse">
<stop stop-color="#656462"></stop>
<stop offset="1" stop-color="#9A9895"></stop>
</linearGradient>
<linearGradient id="paint4_linear_48_269" x1="74.7247" y1="43.5908" x2="60.9777" y2="23.7678" gradientUnits="userSpaceOnUse">
<stop stop-color="#9B9693"></stop>
<stop offset="1" stop-color="#DDDDD9"></stop>
</linearGradient>
<clipPath id="SvgjsClipPath1478"><rect width="1000" height="1000" x="0" y="0" rx="250" ry="250"></rect></clipPath></defs></svg></g></g></svg></g></svg>