<svg width="621" height="205" viewBox="0 0 621 205" fill="none" xmlns="http://www.w3.org/2000/svg">
<path d="M77.0916 0C89.3176 4.3466 105.007 11.2513 117.288 16.2728C121.143 17.5928 125.021 19.1268 128.803 20.6548C140.263 25.2868 151.914 29.5198 163.273 34.3808C164.095 34.7328 165.701 35.5868 165.973 36.4298C166.451 37.7238 166.877 39.7698 166.904 41.1488C167.087 50.8268 167.013 60.7008 167.02 70.3758L167.011 128.461C167.005 132.306 166.706 142.602 167.067 146.03C167.103 146.495 167.125 146.96 167.132 147.426C167.206 150.343 166.714 152.176 163.244 152.108C153.131 151.911 143.011 152.001 132.896 152.027L63.2926 152.285L23.0656 152.45C16.2276 152.481 9.09584 152.608 2.25434 152.387C1.21174 152.353 0.938136 151.925 0.357836 151.239C-0.197764 147.033 0.0592383 139.873 0.0600383 135.352L0.0636394 107.174L0.0845363 71.8268C0.0913363 68.1858 -0.152763 54.6718 0.815837 50.4768C1.10504 49.2238 4.50164 47.1458 5.76884 46.3558C29.6066 31.4978 52.9676 14.2577 77.0916 0Z" fill="#13171B"/>
<path d="M117.288 16.2728C121.143 17.5928 125.021 19.1268 128.803 20.6548C140.263 25.2868 151.914 29.5198 163.274 34.3808C164.095 34.7328 165.701 35.5868 165.973 36.4298C166.451 37.7238 166.877 39.7698 166.904 41.1488C167.087 50.8268 167.013 60.7008 167.021 70.3758L167.011 128.461C167.006 132.306 166.706 142.602 167.067 146.03C165.316 145.722 161.427 145.79 159.471 145.783C159.461 142.004 159.353 136.269 159.745 132.667C159.617 130.266 159.642 130.527 157.498 130.09L158.804 129.953C160.174 128.409 159.556 123.509 159.446 121.246C159.015 118.321 159.237 110.383 159.265 107.019C149.997 108.293 141.423 109.869 132.22 111.639L132.102 114.997C125.071 115.045 117.285 115.287 110.316 115.023C109.113 117.561 109.579 125.884 109.636 128.977C105.83 128.939 101.585 128.994 97.8206 128.85C97.4176 108.016 98.4866 84.6818 97.5986 64.1728C93.4806 64.2838 67.6446 66.2808 65.7856 67.6708C60.7116 65.3018 51.1396 63.0028 45.5886 61.2088C42.7626 60.2958 40.1386 59.9638 37.1766 58.6868L37.2696 58.1208L39.9186 56.7088L39.8846 56.0338C41.0326 55.0298 56.1856 48.9838 58.4476 48.0358L116.999 23.5908C118.356 21.0718 118.149 18.9108 117.288 16.2728Z" fill="url(#paint0_linear_48_251)"/>
<path d="M117.288 16.2728C121.143 17.5928 125.021 19.1268 128.803 20.6548C140.263 25.2868 151.914 29.5198 163.273 34.3808C164.095 34.7328 165.701 35.5868 165.973 36.4298C166.451 37.7238 166.877 39.7698 166.904 41.1488C167.087 50.8268 167.013 60.7008 167.021 70.3758L167.011 128.461C167.005 132.306 166.706 142.602 167.067 146.03C165.316 145.722 161.427 145.79 159.471 145.783C159.461 142.004 159.353 136.269 159.745 132.667C159.617 130.266 159.642 130.527 157.497 130.09L158.804 129.953C160.174 128.409 159.556 123.509 159.446 121.246C159.015 118.321 159.237 110.383 159.265 107.019C149.997 108.293 141.423 109.869 132.22 111.639L132.102 114.997C125.071 115.045 117.285 115.287 110.316 115.023C114.295 114.613 121.41 114.806 125.627 114.811C125.363 99.4038 125.839 83.3798 125.809 67.8638C125.515 65.1468 125.504 55.7198 124.588 53.5538C123.313 53.0248 119.04 54.0128 117.412 54.2148C114.325 54.5968 111.869 54.5768 108.775 54.3938C111.878 54.4128 112.955 53.2528 115.354 52.8768C117.686 52.5118 120.969 52.8978 123.583 52.1108C125.568 51.5138 125.601 50.6998 127.439 49.9958C128.783 49.4808 133.29 48.5388 134.173 47.8508C139.152 43.9678 141.827 37.9608 148.918 36.8058C146.691 35.9898 144.848 35.0898 143.064 33.5298C137.854 30.9868 123.062 25.8688 116.999 23.5908C118.356 21.0718 118.149 18.9108 117.288 16.2728Z" fill="url(#paint1_linear_48_251)"/>
<path d="M117.288 16.2728C121.143 17.5928 125.021 19.1268 128.803 20.6548C140.263 25.2868 151.914 29.5198 163.273 34.3808C164.095 34.7328 165.701 35.5868 165.973 36.4298C166.451 37.7238 166.877 39.7698 166.904 41.1488C167.087 50.8268 167.013 60.7008 167.02 70.3758L167.011 128.461C167.005 132.306 166.706 142.602 167.067 146.03C165.316 145.722 161.427 145.79 159.471 145.783C159.461 142.004 159.353 136.269 159.745 132.667C159.617 130.266 159.641 130.527 157.497 130.09L158.804 129.953C160.174 128.409 159.556 123.509 159.446 121.246C159.015 118.321 159.236 110.383 159.265 107.019C158.318 106.263 157.871 106.369 156.673 106.314C156.765 104.573 157.109 103.887 157.689 102.265L158.012 102.847C158.987 100.908 158.14 87.4138 158.667 84.4378C159.284 80.9558 157.768 73.0958 159.818 70.2378C159.969 67.1058 159.878 63.9148 159.834 60.7758C160.398 56.8368 160.162 44.5908 160.174 40.1528C154.421 38.0408 148.924 35.4478 143.064 33.5298C137.854 30.9868 123.062 25.8688 116.999 23.5908C118.356 21.0718 118.149 18.9108 117.288 16.2728Z" fill="#D38E36"/>
<path d="M159.265 107.019C158.318 106.263 157.871 106.369 156.673 106.314C156.765 104.573 157.109 103.886 157.689 102.265L158.012 102.847C158.987 100.908 158.14 87.4139 158.667 84.4369C159.284 80.9559 157.768 73.0959 159.818 70.2379C159.863 81.1379 159.833 92.0389 159.729 102.939C159.722 107.224 159.992 117.553 159.446 121.245C159.015 118.321 159.236 110.383 159.265 107.019Z" fill="#EECCA8"/>
<path d="M131.538 50.1488L132.419 51.6768C132.79 63.5398 132.546 76.1888 132.509 88.1088C132.924 93.3448 132.617 98.6808 132.806 103.934C132.875 105.846 134.151 108.05 133.902 109.834L132.22 111.639L132.102 114.997C125.071 115.045 117.285 115.287 110.316 115.023C114.295 114.613 121.41 114.806 125.627 114.811C125.363 99.4038 125.839 83.3798 125.809 67.8638L126.159 67.7588C125.899 63.0068 126.124 56.6588 126.21 51.8038C128.009 51.3168 129.766 50.7258 131.538 50.1488Z" fill="#D38E36"/>
<path d="M125.809 67.8629L126.159 67.7589C126.601 82.3119 125.2 96.3019 127.086 110.714C129.181 109.478 130.502 111.33 131.964 110.442C132.959 105.302 131.533 93.9859 132.509 88.1089C132.924 93.3449 132.617 98.6799 132.806 103.934C132.875 105.846 134.151 108.049 133.902 109.834L132.22 111.639L132.102 114.997C125.071 115.045 117.285 115.287 110.316 115.023C114.295 114.613 121.41 114.806 125.627 114.811C125.363 99.4039 125.839 83.3799 125.809 67.8629Z" fill="#E6AA59"/>
<path d="M143.064 33.5298C148.924 35.4478 154.421 38.0408 160.174 40.1528C160.162 44.5908 160.398 56.8368 159.834 60.7758C159.341 55.6548 159.63 46.9428 159.649 41.5588C155.031 43.6248 135.454 50.2448 133.857 54.7198L134.207 55.0599C136.322 54.0859 142.635 51.2299 144.572 50.7819L144.801 51.1358C143.587 51.9428 134.065 56.1138 133.077 55.8628C132.923 54.3978 132.861 54.0668 133.15 52.6358C134.356 51.2088 136.722 50.5018 138.589 49.3728L138.883 49.1918C136.487 49.9638 134.67 50.4848 132.419 51.6768L131.538 50.1488C129.766 50.7258 128.009 51.3168 126.21 51.8038C126.124 56.6588 125.899 63.0068 126.159 67.7588L125.809 67.8628C125.515 65.1468 125.504 55.7198 124.588 53.5538C123.313 53.0248 119.04 54.0129 117.412 54.2149C114.325 54.5969 111.869 54.5769 108.775 54.3939C111.878 54.4129 112.955 53.2529 115.354 52.8769C117.686 52.5119 120.969 52.8978 123.583 52.1108C125.568 51.5138 125.601 50.6998 127.439 49.9958C128.783 49.4808 133.29 48.5389 134.173 47.8509C139.152 43.9679 141.827 37.9608 148.918 36.8048C146.691 35.9898 144.848 35.0898 143.064 33.5298Z" fill="#EECCA8"/>
<path d="M131.537 50.1488C133.939 49.3438 142.581 46.2818 144.383 46.8658L144.389 46.8948L143.727 46.9598C143.372 47.6148 139.872 48.8018 138.883 49.1918C136.487 49.9638 134.67 50.4848 132.419 51.6768L131.537 50.1488Z" fill="#E6AA59"/>
<path d="M34.8656 58.2778C36.7446 57.1838 37.8576 56.7958 39.8846 56.0338L39.9186 56.7088L37.2696 58.1208L37.1756 58.6868C40.1386 59.9638 42.7626 60.2958 45.5886 61.2088C51.1396 63.0028 60.7116 65.3018 65.7856 67.6708C67.6446 66.2808 93.4806 64.2838 97.5986 64.1728C98.4866 84.6818 97.4166 108.016 97.8196 128.85C96.7886 128.961 96.2286 129.132 95.2906 128.697C94.5976 126.463 94.8976 117.611 94.9206 114.619L95.0016 86.5558C94.9986 81.9378 95.2116 74.8378 94.6436 70.4748C94.7316 73.0938 95.0026 77.8398 94.2636 80.2318C94.0266 84.9538 94.2296 91.6818 94.2316 96.5368L94.2486 128.885C76.0986 128.976 52.7836 130.915 34.4756 133.312L34.8656 58.2778Z" fill="#FFFFFE"/>
<path d="M65.7856 67.6708C67.6446 66.2808 93.4806 64.2838 97.5986 64.1728C98.4866 84.6818 97.4166 108.016 97.8196 128.85C96.7886 128.961 96.2286 129.132 95.2906 128.697C94.5976 126.463 94.8976 117.611 94.9206 114.619L95.0016 86.5558C94.9986 81.9378 95.2116 74.8378 94.6436 70.4748C94.7316 73.0938 95.0026 77.8388 94.2636 80.2318C94.1496 76.8938 94.1066 70.6128 94.4186 67.4498C86.0336 68.2408 77.6416 68.9598 69.2446 69.6078L69.1956 124.241C72.3626 124.142 88.3116 123.226 89.8016 124.106C89.8826 125.393 90.0626 125.122 89.4946 126.014C84.6276 126.719 71.3906 126.588 65.8776 126.653C65.7366 106.992 65.7056 87.3308 65.7856 67.6708Z" fill="#101417"/>
<path d="M34.4306 135.561C47.6006 134.586 60.9916 132.606 74.2336 131.796C85.2746 131.119 95.9716 131.223 107.01 131.269C112.107 131.291 117.561 130.729 122.787 130.699C135.134 130.666 147.472 131.322 159.745 132.667C159.353 136.269 159.461 142.004 159.472 145.783C146.809 145.278 130.382 145.779 117.486 145.789L34.4376 145.776L34.4306 135.561Z" fill="#FFFFFE"/>
<path d="M132.22 111.639C141.423 109.869 149.997 108.293 159.265 107.019C159.237 110.383 159.015 118.321 159.446 121.246C159.556 123.509 160.174 128.409 158.804 129.953L157.497 130.09C149.394 129.271 140.149 128.48 132.024 128.311C132.007 123.873 132.033 119.435 132.102 114.997L132.22 111.639Z" fill="url(#paint2_linear_48_251)"/>
<path d="M6.36206 145.936C6.58796 135.382 5.97606 54.5109 7.21596 52.9669C8.81816 53.5339 25.4967 55.9699 28.5397 56.4779C29.0347 65.5419 28.7257 77.8339 28.7507 87.1149L28.8417 145.957C21.3487 145.896 13.8554 145.889 6.36206 145.936Z" fill="url(#paint3_linear_48_251)"/>
<path d="M77.3106 7.02704L82.9766 9.42014L110.199 20.2848C103.868 22.4158 95.5187 26.2748 89.2197 28.9828C77.1976 34.1278 65.2076 39.3468 53.2506 44.6398C50.8966 45.6818 37.3336 51.9778 35.7126 52.1508C33.3566 53.3168 30.1416 54.5408 28.5396 56.4778C25.4966 55.9698 8.81814 53.5338 7.21594 52.9668C26.0576 41.0948 44.4396 28.2238 63.2736 16.3108C67.8806 13.3971 72.9186 10.2197 77.3106 7.02704Z" fill="url(#paint4_linear_48_251)"/>
<path d="M77.3106 7.02704L82.9766 9.42014C80.4576 10.4101 76.3486 16.6278 74.7056 17.3318C64.4376 21.7358 55.8116 26.9038 47.5036 34.5358C44.5226 37.2428 39.3576 39.5328 36.7276 42.7478C35.5996 44.1258 29.8916 50.5858 30.0926 51.7868C31.9436 51.9388 33.8616 52.1408 35.7126 52.1508C33.3566 53.3168 30.1416 54.5408 28.5396 56.4778C25.4966 55.9698 8.81814 53.5338 7.21594 52.9668C26.0576 41.0948 44.4396 28.2238 63.2736 16.3108C67.8806 13.3971 72.9186 10.2197 77.3106 7.02704Z" fill="#FFFFFE"/>
<path d="M280.935 200.08L338.588 199.954C342.16 199.954 361.797 199.396 363.517 200.472C364.099 202.007 363.893 202.826 362.817 204.049C361.551 204.686 346.233 204.346 343.56 204.35L297.744 204.433L212.97 204.643L213.024 200.175C235.661 200.266 258.299 200.235 280.935 200.08Z" fill="#D38E36"/>
<path d="M255.367 18.9068V69.4638H241.839V29.7688H224.757V69.4638H211.229V18.9068H255.367ZM267.625 69.4638V18.9068H289.447C293.199 18.9068 296.483 19.6478 299.297 21.1288C302.111 22.6098 304.3 24.6918 305.863 27.3738C307.427 30.0568 308.208 33.1918 308.208 36.7798C308.208 40.3998 307.402 43.5348 305.789 46.1848C304.193 48.8348 301.946 50.8748 299.05 52.3068C296.17 53.7388 292.804 54.4548 288.953 54.4548H275.919V43.7908H286.189C287.801 43.7908 289.176 43.5108 290.311 42.9508C291.463 42.3748 292.344 41.5608 292.953 40.5068C293.578 39.4538 293.891 38.2118 293.891 36.7798C293.891 35.3318 293.578 34.0968 292.953 33.0768C292.344 32.0398 291.463 31.2498 290.311 30.7068C289.176 30.1468 287.801 29.8678 286.189 29.8678H281.35V69.4638H267.625ZM365.697 44.1858C365.697 49.8138 364.603 54.5618 362.414 58.4288C360.225 62.2798 357.271 65.2008 353.552 67.1928C349.832 69.1678 345.685 70.1548 341.11 70.1548C336.502 70.1548 332.338 69.1588 328.619 67.1678C324.916 65.1598 321.97 62.2308 319.781 58.3798C317.609 54.5118 316.523 49.7808 316.523 44.1858C316.523 38.5568 317.609 33.8168 319.781 29.9658C321.97 26.0988 324.916 23.1778 328.619 21.2028C332.338 19.2118 336.502 18.2158 341.11 18.2158C345.685 18.2158 349.832 19.2118 353.552 21.2028C357.271 23.1778 360.225 26.0988 362.414 29.9658C364.603 33.8168 365.697 38.5568 365.697 44.1858ZM351.577 44.1858C351.577 41.1568 351.173 38.6068 350.367 36.5328C349.577 34.4428 348.4 32.8628 346.837 31.7928C345.29 30.7068 343.381 30.1638 341.11 30.1638C338.839 30.1638 336.921 30.7068 335.358 31.7928C333.811 32.8628 332.634 34.4428 331.828 36.5328C331.038 38.6068 330.643 41.1568 330.643 44.1858C330.643 47.2138 331.038 49.7728 331.828 51.8628C332.634 53.9358 333.811 55.5158 335.358 56.6028C336.921 57.6718 338.839 58.2068 341.11 58.2068C343.381 58.2068 345.29 57.6718 346.837 56.6028C348.4 55.5158 349.577 53.9358 350.367 51.8628C351.173 49.7728 351.577 47.2138 351.577 44.1858ZM375.523 69.4638V18.9068H411.96V29.9658H389.249V38.6558H410.084V49.7148H389.249V58.4048H411.861V69.4638H375.523ZM453.396 69.4638L437.893 49.0238H435.968V69.4638H422.243V18.9068H435.968V37.9648H437.745L452.261 18.9068H469.541L450.286 43.1978L470.627 69.4638H453.396ZM476.405 29.9658V18.9068H520.346V29.9658H505.139V69.4638H491.611V29.9658H476.405ZM240.111 139.464L224.608 119.024H222.683V139.464H208.958V88.9068H222.683V107.965H224.46L238.976 88.9068H256.256L237.001 113.198L257.342 139.464H240.111ZM264.502 139.464V88.9068H286.423C290.274 88.9068 293.508 89.4258 296.125 90.4618C298.758 91.4988 300.741 92.9638 302.074 94.8558C303.424 96.7488 304.098 98.9788 304.098 101.546C304.098 103.406 303.687 105.101 302.864 106.632C302.058 108.162 300.922 109.446 299.457 110.483C297.993 111.503 296.281 112.211 294.323 112.606V113.099C296.495 113.182 298.47 113.733 300.247 114.753C302.025 115.757 303.44 117.148 304.493 118.925C305.547 120.686 306.073 122.76 306.073 125.146C306.073 127.911 305.349 130.371 303.901 132.527C302.469 134.683 300.428 136.378 297.779 137.612C295.129 138.847 291.969 139.464 288.299 139.464H264.502ZM278.227 128.503H284.646C286.95 128.503 288.678 128.075 289.83 127.22C290.982 126.347 291.558 125.064 291.558 123.369C291.558 122.184 291.286 121.18 290.743 120.357C290.2 119.534 289.427 118.909 288.423 118.481C287.435 118.053 286.242 117.839 284.843 117.839H278.227V128.503ZM278.227 109.347H283.856C285.057 109.347 286.119 109.158 287.04 108.779C287.962 108.401 288.678 107.858 289.188 107.15C289.715 106.426 289.978 105.545 289.978 104.509C289.978 102.945 289.418 101.752 288.299 100.929C287.18 100.09 285.765 99.6698 284.053 99.6698H278.227V109.347ZM327.545 139.464H312.733L329.421 88.9068H348.182L364.87 139.464H350.058L338.999 102.83H338.604L327.545 139.464ZM324.78 119.518H352.626V129.787H324.78V119.518ZM373.215 139.464V88.9068H395.037C398.79 88.9068 402.073 89.6478 404.887 91.1288C407.701 92.6098 409.89 94.6918 411.454 97.3738C413.017 100.057 413.799 103.192 413.799 106.78C413.799 110.4 412.992 113.535 411.38 116.185C409.783 118.835 407.537 120.875 404.64 122.307C401.76 123.739 398.395 124.455 394.544 124.455H381.51V113.791H391.779C393.392 113.791 394.766 113.511 395.901 112.951C397.053 112.375 397.934 111.561 398.543 110.507C399.168 109.454 399.481 108.212 399.481 106.78C399.481 105.332 399.168 104.097 398.543 103.077C397.934 102.04 397.053 101.25 395.901 100.707C394.766 100.147 393.392 99.8678 391.779 99.8678H386.94V139.464H373.215ZM420.928 99.9658V88.9068H464.869V99.9658H449.662V139.464H436.135V99.9658H420.928ZM473.51 88.9068H487.236V115.37H487.631L505.602 88.9068H517.254V139.464H503.528V112.902H503.232L484.965 139.464H473.51V88.9068ZM527.222 139.464V88.9068H549.044C552.796 88.9068 556.08 89.6478 558.894 91.1288C561.708 92.6098 563.897 94.6918 565.46 97.3738C567.024 100.057 567.806 103.192 567.806 106.78C567.806 110.4 566.999 113.535 565.386 116.185C563.79 118.835 561.544 120.875 558.647 122.307C555.767 123.739 552.401 124.455 548.55 124.455H535.516V113.791H545.786C547.398 113.791 548.773 113.511 549.908 112.951C551.06 112.375 551.941 111.561 552.55 110.507C553.175 109.454 553.488 108.212 553.488 106.78C553.488 105.332 553.175 104.097 552.55 103.077C551.941 102.04 551.06 101.25 549.908 100.707C548.773 100.147 547.398 99.8678 545.786 99.8678H540.947V139.464H527.222ZM583.137 139.464H568.325L585.013 88.9068H603.774L620.462 139.464H605.65L594.591 102.83H594.196L583.137 139.464ZM580.372 119.518H608.218V129.787H580.372V119.518Z" fill="black"/>
<path d="M213.252 183.184V163.84H220.506C221.992 163.84 223.239 164.117 224.246 164.671C225.26 165.225 226.025 165.987 226.542 166.956C227.064 167.92 227.326 169.016 227.326 170.243C227.326 171.484 227.064 172.586 226.542 173.549C226.019 174.513 225.248 175.272 224.228 175.826C223.207 176.373 221.951 176.647 220.459 176.647H215.651V173.767H219.987C220.856 173.767 221.567 173.615 222.121 173.313C222.675 173.011 223.085 172.595 223.349 172.066C223.62 171.537 223.755 170.93 223.755 170.243C223.755 169.557 223.62 168.953 223.349 168.43C223.085 167.907 222.672 167.501 222.112 167.212C221.558 166.916 220.843 166.768 219.968 166.768H216.756V183.184H213.252ZM237.551 183.184V163.84H250.132V166.777H241.055V172.029H249.48V174.966H241.055V180.246H250.208V183.184H237.551ZM260.889 163.84H265.177L270.92 177.856H271.146L276.889 163.84H281.177V183.184H277.815V169.894H277.635L272.289 183.127H269.777L264.431 169.866H264.251V183.184H260.889V163.84ZM309.46 173.512C309.46 175.596 309.069 177.381 308.288 178.867C307.514 180.347 306.456 181.48 305.115 182.267C303.78 183.055 302.265 183.448 300.572 183.448C298.878 183.448 297.36 183.055 296.019 182.267C294.684 181.474 293.626 180.337 292.845 178.858C292.071 177.372 291.683 175.59 291.683 173.512C291.683 171.427 292.071 169.645 292.845 168.165C293.626 166.679 294.684 165.543 296.019 164.756C297.36 163.969 298.878 163.575 300.572 163.575C302.265 163.575 303.78 163.969 305.115 164.756C306.456 165.543 307.514 166.679 308.288 168.165C309.069 169.645 309.46 171.427 309.46 173.512ZM305.936 173.512C305.936 172.044 305.707 170.807 305.247 169.8C304.794 168.786 304.164 168.021 303.358 167.504C302.552 166.982 301.623 166.72 300.572 166.72C299.52 166.72 298.591 166.982 297.785 167.504C296.979 168.021 296.346 168.786 295.887 169.8C295.433 170.807 295.207 172.044 295.207 173.512C295.207 174.979 295.433 176.219 295.887 177.233C296.346 178.241 296.979 179.006 297.785 179.528C298.591 180.045 299.52 180.303 300.572 180.303C301.623 180.303 302.552 180.045 303.358 179.528C304.164 179.006 304.794 178.241 305.247 177.233C305.707 176.219 305.936 174.979 305.936 173.512ZM319.954 183.184V163.84H323.458V172.029H332.422V163.84H335.936V183.184H332.422V174.966H323.458V183.184H319.954ZM346.078 166.777V163.84H361.512V166.777H355.533V183.184H352.057V166.777H346.078ZM401.231 163.84V183.184H397.755V166.749H389.292V183.184H385.816V163.84H401.231ZM429.889 173.512C429.889 175.596 429.498 177.381 428.717 178.867C427.943 180.347 426.885 181.48 425.544 182.267C424.209 183.055 422.694 183.448 421.001 183.448C419.307 183.448 417.789 183.055 416.448 182.267C415.113 181.474 414.055 180.337 413.274 178.858C412.5 177.372 412.112 175.59 412.112 173.512C412.112 171.427 412.5 169.645 413.274 168.165C414.055 166.679 415.113 165.543 416.448 164.756C417.789 163.969 419.307 163.575 421.001 163.575C422.694 163.575 424.209 163.969 425.544 164.756C426.885 165.543 427.943 166.679 428.717 168.165C429.498 169.645 429.889 171.427 429.889 173.512ZM426.365 173.512C426.365 172.044 426.136 170.807 425.676 169.8C425.223 168.786 424.593 168.021 423.787 167.504C422.981 166.982 422.052 166.72 421.001 166.72C419.949 166.72 419.02 166.982 418.214 167.504C417.408 168.021 416.775 168.786 416.316 169.8C415.862 170.807 415.636 172.044 415.636 173.512C415.636 174.979 415.862 176.219 416.316 177.233C416.775 178.241 417.408 179.006 418.214 179.528C419.02 180.045 419.949 180.303 421.001 180.303C422.052 180.303 422.981 180.045 423.787 179.528C424.593 179.006 425.223 178.241 425.676 177.233C426.136 176.219 426.365 174.979 426.365 173.512ZM439.127 187.85V180.322H440.421C440.855 179.975 441.261 179.487 441.639 178.858C442.017 178.228 442.338 177.365 442.603 176.27C442.867 175.174 443.05 173.757 443.151 172.019L443.661 163.84H456.024V180.322H458.178V187.831H454.815V183.184H442.489V187.85H439.127ZM444.501 180.322H452.662V166.777H446.815L446.513 172.019C446.431 173.335 446.299 174.513 446.116 175.552C445.934 176.591 445.704 177.507 445.427 178.3C445.15 179.087 444.841 179.761 444.501 180.322ZM493.583 183.184L487.217 174.73H485.498V183.184H481.993V163.84H485.498V171.793H486.376L493.252 163.84H497.569L489.927 172.661L497.899 183.184H493.583ZM506.205 183.184V180.274L506.753 180.246C507.496 180.202 508.084 179.934 508.519 179.443C508.96 178.952 509.284 178.162 509.492 177.072C509.706 175.983 509.848 174.522 509.917 172.69L510.238 163.84H522.914V183.184H519.485V166.72H513.506L513.204 173.776C513.116 175.892 512.883 177.645 512.505 179.037C512.133 180.429 511.523 181.468 510.673 182.154C509.829 182.84 508.654 183.184 507.149 183.184H506.205ZM537.42 163.84V183.184H533.916V163.84H537.42ZM541.604 172.388V175.202H535.512V172.388H541.604ZM558.285 173.512C558.285 175.596 557.894 177.381 557.114 178.867C556.339 180.347 555.281 181.48 553.94 182.267C552.605 183.055 551.091 183.448 549.397 183.448C547.703 183.448 546.185 183.055 544.844 182.267C543.509 181.474 542.451 180.337 541.67 178.858C540.896 177.372 540.509 175.59 540.509 173.512C540.509 171.427 540.896 169.645 541.67 168.165C542.451 166.679 543.509 165.543 544.844 164.756C546.185 163.969 547.703 163.575 549.397 163.575C551.091 163.575 552.605 163.969 553.94 164.756C555.281 165.543 556.339 166.679 557.114 168.165C557.894 169.645 558.285 171.427 558.285 173.512ZM554.762 173.512C554.762 172.044 554.532 170.807 554.072 169.8C553.619 168.786 552.989 168.021 552.183 167.504C551.377 166.982 550.448 166.72 549.397 166.72C548.345 166.72 547.416 166.982 546.61 167.504C545.804 168.021 545.171 168.786 544.712 169.8C544.258 170.807 544.032 172.044 544.032 173.512C544.032 174.979 544.258 176.219 544.712 177.233C545.171 178.241 545.804 179.006 546.61 179.528C547.416 180.045 548.345 180.303 549.397 180.303C550.448 180.303 551.377 180.045 552.183 179.528C552.989 179.006 553.619 178.241 554.072 177.233C554.532 176.219 554.762 174.979 554.762 173.512ZM569.388 163.84H572.817V170.149C572.817 170.968 572.959 171.616 573.242 172.095C573.532 172.573 573.96 172.917 574.527 173.124C575.093 173.332 575.799 173.436 576.642 173.436C577.02 173.436 577.426 173.423 577.861 173.398C578.302 173.367 578.746 173.326 579.193 173.275C579.64 173.219 580.068 173.153 580.477 173.077C580.887 172.995 581.252 172.907 581.573 172.813V175.665C581.252 175.766 580.893 175.857 580.496 175.939C580.099 176.021 579.681 176.09 579.24 176.147C578.799 176.203 578.358 176.248 577.918 176.279C577.477 176.311 577.052 176.326 576.642 176.326C575.163 176.326 573.878 176.115 572.789 175.693C571.706 175.265 570.868 174.598 570.276 173.691C569.684 172.784 569.388 171.604 569.388 170.149V163.84ZM580.997 163.84H584.444V183.184H580.997V163.84Z" fill="black"/>
<defs>
<linearGradient id="paint0_linear_48_251" x1="109.806" y1="19.4778" x2="68.1086" y2="114.332" gradientUnits="userSpaceOnUse">
<stop stop-color="#ECD6C4"/>
<stop offset="1" stop-color="#F6F8F7"/>
</linearGradient>
<linearGradient id="paint1_linear_48_251" x1="132.408" y1="75.1178" x2="159.551" y2="76.4738" gradientUnits="userSpaceOnUse">
<stop stop-color="#EDB779"/>
<stop offset="1" stop-color="#F9E5CD"/>
</linearGradient>
<linearGradient id="paint2_linear_48_251" x1="135.027" y1="129.624" x2="159.129" y2="109.648" gradientUnits="userSpaceOnUse">
<stop stop-color="#F5E0CC"/>
<stop offset="1" stop-color="white"/>
</linearGradient>
<linearGradient id="paint3_linear_48_251" x1="33.5007" y1="142.648" x2="0.266562" y2="56.5299" gradientUnits="userSpaceOnUse">
<stop stop-color="#656462"/>
<stop offset="1" stop-color="#9A9895"/>
</linearGradient>
<linearGradient id="paint4_linear_48_251" x1="74.7246" y1="43.5908" x2="60.9776" y2="23.7678" gradientUnits="userSpaceOnUse">
<stop stop-color="#9B9693"/>
<stop offset="1" stop-color="#DDDDD9"/>
</linearGradient>
</defs>
</svg>
